<svg width="1305" height="150" viewBox="0 0 1305 150" fill="none" xmlns="http://www.w3.org/2000/svg">
<rect x="1.45455" y="1.45455" width="541.091" height="147.091" rx="36.0092" fill="#FFF4EA" stroke="black" stroke-width="2.90909"/>
<path d="M135.168 91.168H100.736L92.544 116H82.048L112 26.4H124.544L154.752 116H143.616L135.168 91.168ZM104.064 81.952H132.224L119.04 39.84H117.504L104.064 81.952ZM157.006 26.4H177.486V59.296H178.126C180.345 56.48 183.203 54.304 186.702 52.768C190.201 51.232 193.998 50.464 198.094 50.464C216.867 50.464 226.254 61.3013 226.254 82.976C226.254 93.984 223.225 102.432 217.166 108.32C211.107 114.123 202.489 117.024 191.31 117.024C186.019 117.024 181.241 116.512 176.974 115.488C172.707 114.464 169.593 113.269 167.63 111.904V34.976H157.006V26.4ZM196.814 59.04C191.694 59.04 187.555 60.4907 184.398 63.392C181.241 66.2933 178.937 70.3893 177.486 75.68V105.12C179.449 106.144 181.795 106.955 184.526 107.552C187.257 108.149 190.115 108.448 193.102 108.448C196.515 108.448 199.587 107.979 202.318 107.04C205.134 106.016 207.523 104.48 209.486 102.432C211.449 100.299 212.942 97.6107 213.966 94.368C215.075 91.1253 215.63 87.2853 215.63 82.848C215.63 79.6053 215.289 76.5333 214.606 73.632C213.923 70.7307 212.814 68.2133 211.278 66.08C209.827 63.8613 207.907 62.1547 205.518 60.96C203.129 59.68 200.227 59.04 196.814 59.04ZM240.796 84C240.796 73.6747 243.484 65.5253 248.86 59.552C254.236 53.4933 261.916 50.464 271.9 50.464C277.276 50.464 281.884 51.36 285.724 53.152C289.649 54.8587 292.892 57.2053 295.452 60.192C298.012 63.1787 299.889 66.72 301.084 70.816C302.364 74.912 303.004 79.3067 303.004 84C303.004 89.12 302.321 93.7707 300.956 97.952C299.591 102.048 297.585 105.547 294.94 108.448C292.295 111.349 289.009 113.611 285.084 115.232C281.244 116.768 276.849 117.536 271.9 117.536C266.609 117.536 262.001 116.683 258.076 114.976C254.151 113.184 250.908 110.795 248.348 107.808C245.788 104.821 243.868 101.28 242.588 97.184C241.393 93.088 240.796 88.6933 240.796 84ZM251.42 84C251.42 86.9867 251.761 89.9733 252.444 92.96C253.212 95.9467 254.407 98.6347 256.028 101.024C257.649 103.413 259.74 105.333 262.3 106.784C264.945 108.235 268.145 108.96 271.9 108.96C278.727 108.96 283.847 106.869 287.26 102.688C290.759 98.4213 292.508 92.192 292.508 84C292.508 80.928 292.124 77.9413 291.356 75.04C290.673 72.0533 289.479 69.3653 287.772 66.976C286.151 64.5867 284.017 62.6667 281.372 61.216C278.812 59.7653 275.655 59.04 271.9 59.04C265.073 59.04 259.953 61.1307 256.54 65.312C253.127 69.4933 251.42 75.7227 251.42 84ZM356.714 52H374.89V95.648C374.89 99.8293 375.146 103.84 375.658 107.68H384.234V116H367.21L366.826 105.12H366.314C364.095 108.789 361.151 111.776 357.482 114.08C353.813 116.384 349.375 117.536 344.17 117.536C340.245 117.536 336.874 117.067 334.058 116.128C331.327 115.275 329.066 113.739 327.274 111.52C325.482 109.301 324.159 106.357 323.306 102.688C322.453 98.9333 322.026 94.2827 322.026 88.736V60.576H313.45V52H332.01V86.688C332.01 90.1867 332.138 93.344 332.394 96.16C332.735 98.8907 333.375 101.237 334.314 103.2C335.253 105.077 336.618 106.528 338.41 107.552C340.287 108.491 342.762 108.96 345.834 108.96C350.271 108.96 354.111 107.509 357.354 104.608C360.682 101.707 363.199 98.08 364.906 93.728V60.576H356.714V52ZM390.968 52H406.2V39.328L416.184 36.512V52H450.36V60.576H416.184V90.784C416.184 97.0133 417.677 101.621 420.664 104.608C423.736 107.595 428.088 109.088 433.72 109.088C437.56 109.088 440.888 108.363 443.704 106.912C446.605 105.461 449.208 103.883 451.512 102.176L454.84 109.728C451.853 112.117 448.269 114.037 444.088 115.488C439.992 116.939 435.768 117.664 431.416 117.664C428.003 117.664 424.76 117.152 421.688 116.128C418.701 115.189 416.056 113.696 413.752 111.648C411.448 109.6 409.613 106.997 408.248 103.84C406.883 100.597 406.2 96.7573 406.2 92.32V60.576H390.968V52Z" fill="black"/>
</svg>
