<svg width="1307" height="150" viewBox="0 0 1307 150" fill="none" xmlns="http://www.w3.org/2000/svg">
<rect x="1.45455" y="1.45455" width="772.091" height="147.091" rx="36.0092" fill="#FFF4EA" stroke="black" stroke-width="2.90909"/>
<path d="M138.624 40.128C137.173 39.5307 135.552 39.104 133.76 38.848C132.053 38.5067 129.963 38.336 127.488 38.336C123.989 38.336 120.533 38.976 117.12 40.256C113.792 41.536 110.805 43.6267 108.16 46.528C105.6 49.4293 103.509 53.2267 101.888 57.92C100.352 62.6133 99.584 68.3733 99.584 75.2C99.584 81.344 100.267 86.72 101.632 91.328C103.083 95.936 105.045 99.776 107.52 102.848C110.08 105.92 113.109 108.224 116.608 109.76C120.192 111.296 124.16 112.064 128.512 112.064C130.731 112.064 132.779 111.893 134.656 111.552C136.619 111.125 138.411 110.571 140.032 109.888V97.088H149.504V114.368L149.632 114.624C147.072 116.587 143.829 118.251 139.904 119.616C135.979 120.896 131.2 121.536 125.568 121.536C120.192 121.536 115.2 120.64 110.592 118.848C106.069 116.971 102.144 114.155 98.816 110.4C95.488 106.645 92.8853 101.867 91.008 96.064C89.216 90.176 88.32 83.2213 88.32 75.2C88.32 66.8373 89.344 59.7547 91.392 53.952C93.44 48.064 96.2133 43.2853 99.712 39.616C103.211 35.8613 107.264 33.1307 111.872 31.424C116.565 29.7173 121.557 28.864 126.848 28.864C129.749 28.864 132.267 28.992 134.4 29.248C136.533 29.4187 138.411 29.7173 140.032 30.144C141.653 30.4853 143.061 30.9547 144.256 31.552C145.536 32.1493 146.773 32.832 147.968 33.6H148.096V53.824H138.624V40.128ZM170.19 120V111.424H192.462V64.576H170.19V56H202.702V111.424H224.462V120H170.19ZM189.006 37.824C189.006 35.52 189.774 33.5573 191.31 31.936C192.846 30.2293 194.809 29.376 197.198 29.376C199.673 29.376 201.721 30.2293 203.342 31.936C205.049 33.5573 205.902 35.52 205.902 37.824C205.902 40.0427 205.049 41.92 203.342 43.456C201.721 44.992 199.673 45.76 197.198 45.76C194.809 45.76 192.846 44.992 191.31 43.456C189.774 41.92 189.006 40.0427 189.006 37.824ZM237.468 56H252.7V43.328L262.684 40.512V56H296.86V64.576H262.684V94.784C262.684 101.013 264.177 105.621 267.164 108.608C270.236 111.595 274.588 113.088 280.22 113.088C284.06 113.088 287.388 112.363 290.204 110.912C293.105 109.461 295.708 107.883 298.012 106.176L301.34 113.728C298.353 116.117 294.769 118.037 290.588 119.488C286.492 120.939 282.268 121.664 277.916 121.664C274.503 121.664 271.26 121.152 268.188 120.128C265.201 119.189 262.556 117.696 260.252 115.648C257.948 113.6 256.113 110.997 254.748 107.84C253.383 104.597 252.7 100.757 252.7 96.32V64.576H237.468V56ZM324.074 60.992C327.743 58.8587 331.882 57.3227 336.49 56.384C341.098 55.4453 345.621 54.976 350.058 54.976C354.41 54.976 357.951 55.6587 360.682 57.024C363.498 58.3893 365.674 60.1813 367.21 62.4C368.831 64.5333 369.898 67.008 370.41 69.824C371.007 72.5547 371.306 75.328 371.306 78.144C371.306 81.3867 371.221 84.8427 371.05 88.512C370.879 92.1813 370.751 95.8507 370.666 99.52C370.666 103.787 370.922 107.84 371.434 111.68H380.01V120H362.986L361.834 110.4H361.194C360.682 111.168 359.914 112.149 358.89 113.344C357.866 114.539 356.501 115.733 354.794 116.928C353.173 118.037 351.167 119.019 348.778 119.872C346.389 120.725 343.573 121.152 340.33 121.152C334.015 121.152 329.023 119.531 325.354 116.288C321.685 113.045 319.85 108.608 319.85 102.976C319.85 98.624 320.789 94.9973 322.666 92.096C324.629 89.1947 327.402 86.976 330.986 85.44C334.57 83.904 338.879 83.008 343.914 82.752C349.034 82.496 354.751 82.8373 361.066 83.776C361.493 79.8507 361.535 76.608 361.194 74.048C360.938 71.4027 360.255 69.312 359.146 67.776C358.122 66.24 356.629 65.1733 354.666 64.576C352.789 63.8933 350.442 63.552 347.626 63.552C343.786 63.552 340.117 64.1067 336.618 65.216C333.119 66.24 330.005 67.3067 327.274 68.416L324.074 60.992ZM342.89 112.576C345.279 112.576 347.498 112.192 349.546 111.424C351.594 110.656 353.386 109.675 354.922 108.48C356.458 107.285 357.738 106.005 358.762 104.64C359.786 103.189 360.554 101.824 361.066 100.544V91.584C356.629 90.816 352.533 90.432 348.778 90.432C345.023 90.432 341.781 90.8587 339.05 91.712C336.319 92.48 334.186 93.7173 332.65 95.424C331.114 97.1307 330.346 99.3493 330.346 102.08C330.346 104.896 331.285 107.371 333.162 109.504C335.125 111.552 338.367 112.576 342.89 112.576ZM390.968 56H406.2V43.328L416.184 40.512V56H450.36V64.576H416.184V94.784C416.184 101.013 417.677 105.621 420.664 108.608C423.736 111.595 428.088 113.088 433.72 113.088C437.56 113.088 440.888 112.363 443.704 110.912C446.605 109.461 449.208 107.883 451.512 106.176L454.84 113.728C451.853 116.117 448.269 118.037 444.088 119.488C439.992 120.939 435.768 121.664 431.416 121.664C428.003 121.664 424.76 121.152 421.688 120.128C418.701 119.189 416.056 117.696 413.752 115.648C411.448 113.6 409.613 110.997 408.248 107.84C406.883 104.597 406.2 100.757 406.2 96.32V64.576H390.968V56ZM477.19 120V111.424H499.462V64.576H477.19V56H509.702V111.424H531.462V120H477.19ZM496.006 37.824C496.006 35.52 496.774 33.5573 498.31 31.936C499.846 30.2293 501.809 29.376 504.198 29.376C506.673 29.376 508.721 30.2293 510.342 31.936C512.049 33.5573 512.902 35.52 512.902 37.824C512.902 40.0427 512.049 41.92 510.342 43.456C508.721 44.992 506.673 45.76 504.198 45.76C501.809 45.76 499.846 44.992 498.31 43.456C496.774 41.92 496.006 40.0427 496.006 37.824ZM547.796 88C547.796 77.6747 550.484 69.5253 555.86 63.552C561.236 57.4933 568.916 54.464 578.9 54.464C584.276 54.464 588.884 55.36 592.724 57.152C596.649 58.8587 599.892 61.2053 602.452 64.192C605.012 67.1787 606.889 70.72 608.084 74.816C609.364 78.912 610.004 83.3067 610.004 88C610.004 93.12 609.321 97.7707 607.956 101.952C606.591 106.048 604.585 109.547 601.94 112.448C599.295 115.349 596.009 117.611 592.084 119.232C588.244 120.768 583.849 121.536 578.9 121.536C573.609 121.536 569.001 120.683 565.076 118.976C561.151 117.184 557.908 114.795 555.348 111.808C552.788 108.821 550.868 105.28 549.588 101.184C548.393 97.088 547.796 92.6933 547.796 88ZM558.42 88C558.42 90.9867 558.761 93.9733 559.444 96.96C560.212 99.9467 561.407 102.635 563.028 105.024C564.649 107.413 566.74 109.333 569.3 110.784C571.945 112.235 575.145 112.96 578.9 112.96C585.727 112.96 590.847 110.869 594.26 106.688C597.759 102.421 599.508 96.192 599.508 88C599.508 84.928 599.124 81.9413 598.356 79.04C597.673 76.0533 596.479 73.3653 594.772 70.976C593.151 68.5867 591.017 66.6667 588.372 65.216C585.812 63.7653 582.655 63.04 578.9 63.04C572.073 63.04 566.953 65.1307 563.54 69.312C560.127 73.4933 558.42 79.7227 558.42 88ZM629.154 78.4C629.154 77.632 629.111 76.6507 629.026 75.456C629.026 74.176 628.983 72.896 628.898 71.616C628.813 70.2507 628.685 68.928 628.514 67.648C628.429 66.368 628.301 65.2587 628.13 64.32H619.554V56H636.706L637.858 66.368H638.498C639.351 64.9173 640.461 63.5093 641.826 62.144C643.277 60.6933 644.941 59.4133 646.818 58.304C648.695 57.1093 650.786 56.1707 653.09 55.488C655.394 54.8053 657.826 54.464 660.386 54.464C664.311 54.464 667.767 54.8907 670.754 55.744C673.826 56.5973 676.343 58.1333 678.306 60.352C680.354 62.4853 681.89 65.4293 682.914 69.184C683.938 72.8533 684.45 77.5467 684.45 83.264V120H674.466V85.184C674.466 78.1013 673.314 72.768 671.01 69.184C668.706 65.6 664.525 63.808 658.466 63.808C656.247 63.808 654.071 64.2773 651.938 65.216C649.89 66.0693 648.013 67.2213 646.306 68.672C644.599 70.1227 643.106 71.8293 641.826 73.792C640.546 75.6693 639.607 77.6747 639.01 79.808V120H629.154V78.4Z" fill="black"/>
</svg>
