<svg width="1305" height="150" viewBox="0 0 1305 150" fill="none" xmlns="http://www.w3.org/2000/svg">
<rect x="1.45455" y="1.45455" width="1302.09" height="147.091" rx="36.0092" fill="#FFF4EA" stroke="black" stroke-width="2.90909"/>
<path d="M136.936 35.232C134.035 34.6347 130.493 34.336 126.312 34.336C122.728 34.336 119.272 34.976 115.944 36.256C112.701 37.4507 109.8 39.4987 107.24 42.4C104.765 45.3013 102.76 49.0987 101.224 53.792C99.7733 58.4853 99.048 64.288 99.048 71.2C99.048 83.8293 101.352 93.1307 105.96 99.104C110.653 105.077 117.395 108.064 126.184 108.064C131.645 108.064 136.296 106.997 140.136 104.864V79.904H121.704V71.328H149.224V110.752C147.859 111.776 146.195 112.715 144.232 113.568C142.355 114.421 140.307 115.147 138.088 115.744C135.955 116.341 133.693 116.768 131.304 117.024C129 117.365 126.739 117.536 124.52 117.536C118.803 117.536 113.683 116.64 109.16 114.848C104.637 112.971 100.797 110.155 97.64 106.4C94.4827 102.56 92.0507 97.7387 90.344 91.936C88.6373 86.048 87.784 79.136 87.784 71.2C87.784 62.9227 88.8507 55.84 90.984 49.952C93.1173 44.064 95.9333 39.2853 99.432 35.616C102.931 31.8613 106.941 29.1307 111.464 27.424C115.987 25.7173 120.637 24.864 125.416 24.864C130.536 24.864 134.76 25.1627 138.088 25.76C141.416 26.272 144.232 26.9973 146.536 27.936L146.408 28.448V49.824H136.936V35.232ZM225.462 107.936C223.926 109.301 222.091 110.581 219.958 111.776C217.91 112.971 215.649 113.995 213.174 114.848C210.699 115.701 208.097 116.341 205.366 116.768C202.721 117.28 200.033 117.536 197.302 117.536C192.182 117.536 187.659 116.768 183.734 115.232C179.809 113.611 176.523 111.349 173.878 108.448C171.233 105.461 169.227 101.92 167.862 97.824C166.497 93.728 165.814 89.12 165.814 84C165.814 78.624 166.539 73.8453 167.99 69.664C169.526 65.4827 171.702 61.984 174.518 59.168C177.334 56.352 180.747 54.2187 184.758 52.768C188.769 51.232 193.249 50.464 198.198 50.464C201.782 50.464 205.323 50.9333 208.822 51.872C212.321 52.8107 215.393 54.6027 218.038 57.248C220.769 59.808 222.859 63.392 224.31 68C225.761 72.5227 226.273 78.4107 225.846 85.664H176.31C176.31 93.344 178.358 99.104 182.454 102.944C186.635 106.699 192.182 108.576 199.094 108.576C201.398 108.576 203.659 108.32 205.878 107.808C208.182 107.211 210.358 106.528 212.406 105.76C214.454 104.992 216.246 104.139 217.782 103.2C219.403 102.261 220.641 101.408 221.494 100.64L225.462 107.936ZM198.454 58.912C195.638 58.912 192.95 59.2107 190.39 59.808C187.915 60.4053 185.697 61.4293 183.734 62.88C181.857 64.2453 180.278 66.08 178.998 68.384C177.803 70.6027 177.035 73.376 176.694 76.704H216.502C216.075 71.072 214.241 66.72 210.998 63.648C207.841 60.4907 203.659 58.912 198.454 58.912ZM238.468 52H253.7V39.328L263.684 36.512V52H297.86V60.576H263.684V90.784C263.684 97.0133 265.177 101.621 268.164 104.608C271.236 107.595 275.588 109.088 281.22 109.088C285.06 109.088 288.388 108.363 291.204 106.912C294.105 105.461 296.708 103.883 299.012 102.176L302.34 109.728C299.353 112.117 295.769 114.037 291.588 115.488C287.492 116.939 283.268 117.664 278.916 117.664C275.503 117.664 272.26 117.152 269.188 116.128C266.201 115.189 263.556 113.696 261.252 111.648C258.948 109.6 257.113 106.997 255.748 103.84C254.383 100.597 253.7 96.7573 253.7 92.32V60.576H238.468V52ZM315.218 52H330.45V39.328L340.434 36.512V52H374.61V60.576H340.434V90.784C340.434 97.0133 341.927 101.621 344.914 104.608C347.986 107.595 352.338 109.088 357.97 109.088C361.81 109.088 365.138 108.363 367.954 106.912C370.855 105.461 373.458 103.883 375.762 102.176L379.09 109.728C376.103 112.117 372.519 114.037 368.338 115.488C364.242 116.939 360.018 117.664 355.666 117.664C352.253 117.664 349.01 117.152 345.938 116.128C342.951 115.189 340.306 113.696 338.002 111.648C335.698 109.6 333.863 106.997 332.498 103.84C331.133 100.597 330.45 96.7573 330.45 92.32V60.576H315.218V52ZM401.44 116V107.424H423.712V60.576H401.44V52H433.952V107.424H455.712V116H401.44ZM420.256 33.824C420.256 31.52 421.024 29.5573 422.56 27.936C424.096 26.2293 426.059 25.376 428.448 25.376C430.923 25.376 432.971 26.2293 434.592 27.936C436.299 29.5573 437.152 31.52 437.152 33.824C437.152 36.0427 436.299 37.92 434.592 39.456C432.971 40.992 430.923 41.76 428.448 41.76C426.059 41.76 424.096 40.992 422.56 39.456C421.024 37.92 420.256 36.0427 420.256 33.824ZM476.654 74.4C476.654 73.632 476.611 72.6507 476.526 71.456C476.526 70.176 476.483 68.896 476.398 67.616C476.313 66.2507 476.185 64.928 476.014 63.648C475.929 62.368 475.801 61.2587 475.63 60.32H467.054V52H484.206L485.358 62.368H485.998C486.851 60.9173 487.961 59.5093 489.326 58.144C490.777 56.6933 492.441 55.4133 494.318 54.304C496.195 53.1093 498.286 52.1707 500.59 51.488C502.894 50.8053 505.326 50.464 507.886 50.464C511.811 50.464 515.267 50.8907 518.254 51.744C521.326 52.5973 523.843 54.1333 525.806 56.352C527.854 58.4853 529.39 61.4293 530.414 65.184C531.438 68.8533 531.95 73.5467 531.95 79.264V116H521.966V81.184C521.966 74.1013 520.814 68.768 518.51 65.184C516.206 61.6 512.025 59.808 505.966 59.808C503.747 59.808 501.571 60.2773 499.438 61.216C497.39 62.0693 495.513 63.2213 493.806 64.672C492.099 66.1227 490.606 67.8293 489.326 69.792C488.046 71.6693 487.107 73.6747 486.51 75.808V116H476.654V74.4ZM608.572 119.2C608.572 123.211 607.804 126.709 606.268 129.696C604.732 132.768 602.599 135.285 599.868 137.248C597.223 139.211 594.108 140.661 590.524 141.6C586.94 142.624 583.057 143.136 578.876 143.136C573.841 143.136 569.447 142.624 565.692 141.6C561.937 140.576 558.695 139.253 555.964 137.632L560.828 128.544C561.596 129.227 562.577 129.867 563.772 130.464C565.052 131.147 566.503 131.744 568.124 132.256C569.745 132.853 571.452 133.323 573.244 133.664C575.121 134.005 576.956 134.176 578.748 134.176C582.503 134.176 585.617 133.835 588.092 133.152C590.652 132.469 592.7 131.403 594.236 129.952C595.772 128.501 596.881 126.624 597.564 124.32C598.247 122.016 598.588 119.2 598.588 115.872V108.704H598.076C596.113 111.52 593.596 113.696 590.524 115.232C587.452 116.768 583.484 117.536 578.62 117.536C568.892 117.536 561.724 114.848 557.116 109.472C552.593 104.011 550.332 95.5627 550.332 84.128C550.332 73.2053 553.233 64.9707 559.036 59.424C564.839 53.792 573.457 50.976 584.892 50.976C590.183 50.976 594.663 51.36 598.332 52.128C602.087 52.8107 605.5 53.7067 608.572 54.816V119.2ZM580.028 108.96C585.233 108.96 589.329 107.637 592.316 104.992C595.303 102.261 597.393 98.1227 598.588 92.576V62.24C594.833 60.448 589.585 59.552 582.844 59.552C576.017 59.552 570.641 61.5573 566.716 65.568C562.791 69.5787 560.828 75.7227 560.828 84C560.828 87.6693 561.169 91.04 561.852 94.112C562.535 97.0987 563.601 99.7013 565.052 101.92C566.588 104.139 568.551 105.888 570.94 107.168C573.415 108.363 576.444 108.96 580.028 108.96ZM751.064 98.72C751.064 95.9893 749.997 93.8987 747.864 92.448C745.731 90.912 743.085 89.7173 739.928 88.864C736.771 87.9253 733.315 87.072 729.56 86.304C725.891 85.536 722.477 84.512 719.32 83.232C716.163 81.952 713.517 80.2453 711.384 78.112C709.251 75.8933 708.184 72.8213 708.184 68.896C708.184 65.6533 708.867 62.88 710.232 60.576C711.683 58.272 713.56 56.3947 715.864 54.944C718.168 53.408 720.856 52.2987 723.928 51.616C727 50.848 730.2 50.464 733.528 50.464C739.501 50.464 744.621 51.232 748.888 52.768C753.24 54.2187 756.696 55.7547 759.256 57.376L755.16 65.44C752.344 63.904 749.272 62.4533 745.944 61.088C742.701 59.6373 738.605 58.912 733.656 58.912C731.779 58.912 729.901 59.1253 728.024 59.552C726.232 59.8933 724.568 60.448 723.032 61.216C721.581 61.984 720.387 63.008 719.448 64.288C718.595 65.4827 718.168 66.976 718.168 68.768C718.168 70.9867 719.235 72.6933 721.368 73.888C723.501 75.0827 726.147 76.1067 729.304 76.96C732.461 77.728 735.875 78.496 739.544 79.264C743.299 79.9467 746.755 80.9707 749.912 82.336C753.069 83.7013 755.715 85.536 757.848 87.84C759.981 90.144 761.048 93.2587 761.048 97.184C761.048 103.072 758.701 107.936 754.008 111.776C749.4 115.616 742.445 117.536 733.144 117.536C730.328 117.536 727.555 117.28 724.824 116.768C722.093 116.256 719.533 115.573 717.144 114.72C714.755 113.867 712.579 112.928 710.616 111.904C708.653 110.795 707.032 109.685 705.752 108.576L710.872 100.256C711.896 101.28 713.261 102.347 714.968 103.456C716.675 104.48 718.552 105.419 720.6 106.272C722.648 107.125 724.824 107.808 727.128 108.32C729.517 108.832 731.907 109.088 734.296 109.088C736.6 109.088 738.733 108.917 740.696 108.576C742.744 108.149 744.536 107.552 746.072 106.784C747.608 105.931 748.803 104.864 749.656 103.584C750.595 102.219 751.064 100.597 751.064 98.72ZM775.718 52H790.95V39.328L800.934 36.512V52H835.11V60.576H800.934V90.784C800.934 97.0133 802.427 101.621 805.414 104.608C808.486 107.595 812.838 109.088 818.47 109.088C822.31 109.088 825.638 108.363 828.454 106.912C831.355 105.461 833.958 103.883 836.262 102.176L839.59 109.728C836.603 112.117 833.019 114.037 828.838 115.488C824.742 116.939 820.518 117.664 816.166 117.664C812.753 117.664 809.51 117.152 806.438 116.128C803.451 115.189 800.806 113.696 798.502 111.648C796.198 109.6 794.363 106.997 792.998 103.84C791.633 100.597 790.95 96.7573 790.95 92.32V60.576H775.718V52ZM862.324 56.992C865.993 54.8587 870.132 53.3227 874.74 52.384C879.348 51.4453 883.871 50.976 888.308 50.976C892.66 50.976 896.201 51.6587 898.932 53.024C901.748 54.3893 903.924 56.1813 905.46 58.4C907.081 60.5333 908.148 63.008 908.66 65.824C909.257 68.5547 909.556 71.328 909.556 74.144C909.556 77.3867 909.471 80.8427 909.3 84.512C909.129 88.1813 909.001 91.8507 908.916 95.52C908.916 99.7867 909.172 103.84 909.684 107.68H918.26V116H901.236L900.084 106.4H899.444C898.932 107.168 898.164 108.149 897.14 109.344C896.116 110.539 894.751 111.733 893.044 112.928C891.423 114.037 889.417 115.019 887.028 115.872C884.639 116.725 881.823 117.152 878.58 117.152C872.265 117.152 867.273 115.531 863.604 112.288C859.935 109.045 858.1 104.608 858.1 98.976C858.1 94.624 859.039 90.9973 860.916 88.096C862.879 85.1947 865.652 82.976 869.236 81.44C872.82 79.904 877.129 79.008 882.164 78.752C887.284 78.496 893.001 78.8373 899.316 79.776C899.743 75.8507 899.785 72.608 899.444 70.048C899.188 67.4027 898.505 65.312 897.396 63.776C896.372 62.24 894.879 61.1733 892.916 60.576C891.039 59.8933 888.692 59.552 885.876 59.552C882.036 59.552 878.367 60.1067 874.868 61.216C871.369 62.24 868.255 63.3067 865.524 64.416L862.324 56.992ZM881.14 108.576C883.529 108.576 885.748 108.192 887.796 107.424C889.844 106.656 891.636 105.675 893.172 104.48C894.708 103.285 895.988 102.005 897.012 100.64C898.036 99.1893 898.804 97.824 899.316 96.544V87.584C894.879 86.816 890.783 86.432 887.028 86.432C883.273 86.432 880.031 86.8587 877.3 87.712C874.569 88.48 872.436 89.7173 870.9 91.424C869.364 93.1307 868.596 95.3493 868.596 98.08C868.596 100.896 869.535 103.371 871.412 105.504C873.375 107.552 876.617 108.576 881.14 108.576ZM933.698 116V107.424H950.978V60.576H933.698V52H957.634L959.682 60.32H960.322C963.223 57.6747 966.466 55.4133 970.05 53.536C973.634 51.6587 977.901 50.72 982.85 50.72C985.751 50.72 988.055 51.2747 989.762 52.384C991.554 53.4933 992.919 55.1147 993.858 57.248C994.882 59.3813 995.565 61.984 995.906 65.056C996.247 68.0427 996.418 71.456 996.418 75.296L987.458 75.424C987.458 69.9627 986.903 65.952 985.794 63.392C984.77 60.832 982.85 59.552 980.034 59.552C977.389 59.552 974.999 59.936 972.866 60.704C970.733 61.472 968.855 62.4107 967.234 63.52C965.698 64.6293 964.375 65.7387 963.266 66.848C962.157 67.9573 961.346 68.896 960.834 69.664V107.424H985.41V116H933.698ZM1005.97 52H1021.2V39.328L1031.18 36.512V52H1065.36V60.576H1031.18V90.784C1031.18 97.0133 1032.68 101.621 1035.66 104.608C1038.74 107.595 1043.09 109.088 1048.72 109.088C1052.56 109.088 1055.89 108.363 1058.7 106.912C1061.61 105.461 1064.21 103.883 1066.51 102.176L1069.84 109.728C1066.85 112.117 1063.27 114.037 1059.09 115.488C1054.99 116.939 1050.77 117.664 1046.42 117.664C1043 117.664 1039.76 117.152 1036.69 116.128C1033.7 115.189 1031.06 113.696 1028.75 111.648C1026.45 109.6 1024.61 106.997 1023.25 103.84C1021.88 100.597 1021.2 96.7573 1021.2 92.32V60.576H1005.97V52ZM1146.46 107.936C1144.93 109.301 1143.09 110.581 1140.96 111.776C1138.91 112.971 1136.65 113.995 1134.17 114.848C1131.7 115.701 1129.1 116.341 1126.37 116.768C1123.72 117.28 1121.03 117.536 1118.3 117.536C1113.18 117.536 1108.66 116.768 1104.73 115.232C1100.81 113.611 1097.52 111.349 1094.88 108.448C1092.23 105.461 1090.23 101.92 1088.86 97.824C1087.5 93.728 1086.81 89.12 1086.81 84C1086.81 78.624 1087.54 73.8453 1088.99 69.664C1090.53 65.4827 1092.7 61.984 1095.52 59.168C1098.33 56.352 1101.75 54.2187 1105.76 52.768C1109.77 51.232 1114.25 50.464 1119.2 50.464C1122.78 50.464 1126.32 50.9333 1129.82 51.872C1133.32 52.8107 1136.39 54.6027 1139.04 57.248C1141.77 59.808 1143.86 63.392 1145.31 68C1146.76 72.5227 1147.27 78.4107 1146.85 85.664H1097.31C1097.31 93.344 1099.36 99.104 1103.45 102.944C1107.64 106.699 1113.18 108.576 1120.09 108.576C1122.4 108.576 1124.66 108.32 1126.88 107.808C1129.18 107.211 1131.36 106.528 1133.41 105.76C1135.45 104.992 1137.25 104.139 1138.78 103.2C1140.4 102.261 1141.64 101.408 1142.49 100.64L1146.46 107.936ZM1119.45 58.912C1116.64 58.912 1113.95 59.2107 1111.39 59.808C1108.92 60.4053 1106.7 61.4293 1104.73 62.88C1102.86 64.2453 1101.28 66.08 1100 68.384C1098.8 70.6027 1098.04 73.376 1097.69 76.704H1137.5C1137.08 71.072 1135.24 66.72 1132 63.648C1128.84 60.4907 1124.66 58.912 1119.45 58.912ZM1200.17 26.4H1220.91V94.112C1220.91 94.88 1220.95 95.8613 1221.04 97.056C1221.12 98.1653 1221.21 99.36 1221.29 100.64C1221.46 101.92 1221.63 103.2 1221.8 104.48C1221.97 105.675 1222.15 106.741 1222.32 107.68H1230.89V116H1213.87L1212.59 106.144H1212.08C1210.2 109.387 1207.38 112.117 1203.63 114.336C1199.96 116.469 1195.69 117.536 1190.83 117.536C1181.19 117.536 1174.06 114.848 1169.45 109.472C1164.93 104.011 1162.67 95.5627 1162.67 84.128C1162.67 78.752 1163.44 74.016 1164.97 69.92C1166.51 65.7387 1168.68 62.2827 1171.5 59.552C1174.4 56.736 1177.86 54.6027 1181.87 53.152C1185.88 51.7013 1190.36 50.976 1195.31 50.976C1197.1 50.976 1198.68 51.0187 1200.04 51.104C1201.49 51.1893 1202.82 51.3173 1204.01 51.488C1205.21 51.6587 1206.32 51.9147 1207.34 52.256C1208.45 52.512 1209.64 52.8107 1210.92 53.152V34.976H1200.17V26.4ZM1192.49 108.96C1197.7 108.96 1201.79 107.637 1204.78 104.992C1207.77 102.261 1209.81 98.208 1210.92 92.832V63.136C1209.05 61.856 1206.91 60.9173 1204.52 60.32C1202.22 59.7227 1199.15 59.424 1195.31 59.424C1188.48 59.424 1183.11 61.4293 1179.18 65.44C1175.25 69.3653 1173.29 75.5947 1173.29 84.128C1173.29 87.6267 1173.59 90.912 1174.19 93.984C1174.87 96.9707 1175.94 99.5733 1177.39 101.792C1178.92 104.011 1180.93 105.76 1183.4 107.04C1185.88 108.32 1188.91 108.96 1192.49 108.96Z" fill="black"/>
</svg>
