<svg width="1063" height="150" viewBox="0 0 1063 150" fill="none" xmlns="http://www.w3.org/2000/svg">
<rect x="1.45455" y="1.45455" width="1060.09" height="147.091" rx="36.0092" fill="#FFF4EA" stroke="black" stroke-width="2.90909"/>
<path d="M78.68 30.4H140.12V39.872H114.648V110.528H140.12V120H78.68V110.528H104.024V39.872H78.68V30.4ZM159.654 78.4C159.654 77.632 159.611 76.6507 159.526 75.456C159.526 74.176 159.483 72.896 159.398 71.616C159.313 70.2507 159.185 68.928 159.014 67.648C158.929 66.368 158.801 65.2587 158.63 64.32H150.054V56H167.206L168.358 66.368H168.998C169.851 64.9173 170.961 63.5093 172.326 62.144C173.777 60.6933 175.441 59.4133 177.318 58.304C179.195 57.1093 181.286 56.1707 183.59 55.488C185.894 54.8053 188.326 54.464 190.886 54.464C194.811 54.464 198.267 54.8907 201.254 55.744C204.326 56.5973 206.843 58.1333 208.806 60.352C210.854 62.4853 212.39 65.4293 213.414 69.184C214.438 72.8533 214.95 77.5467 214.95 83.264V120H204.966V85.184C204.966 78.1013 203.814 72.768 201.51 69.184C199.206 65.6 195.025 63.808 188.966 63.808C186.747 63.808 184.571 64.2773 182.438 65.216C180.39 66.0693 178.513 67.2213 176.806 68.672C175.099 70.1227 173.606 71.8293 172.326 73.792C171.046 75.6693 170.107 77.6747 169.51 79.808V120H159.654V78.4ZM280.564 102.72C280.564 99.9893 279.497 97.8987 277.364 96.448C275.231 94.912 272.585 93.7173 269.428 92.864C266.271 91.9253 262.815 91.072 259.06 90.304C255.391 89.536 251.977 88.512 248.82 87.232C245.663 85.952 243.017 84.2453 240.884 82.112C238.751 79.8933 237.684 76.8213 237.684 72.896C237.684 69.6533 238.367 66.88 239.732 64.576C241.183 62.272 243.06 60.3947 245.364 58.944C247.668 57.408 250.356 56.2987 253.428 55.616C256.5 54.848 259.7 54.464 263.028 54.464C269.001 54.464 274.121 55.232 278.388 56.768C282.74 58.2187 286.196 59.7547 288.756 61.376L284.66 69.44C281.844 67.904 278.772 66.4533 275.444 65.088C272.201 63.6373 268.105 62.912 263.156 62.912C261.279 62.912 259.401 63.1253 257.524 63.552C255.732 63.8933 254.068 64.448 252.532 65.216C251.081 65.984 249.887 67.008 248.948 68.288C248.095 69.4827 247.668 70.976 247.668 72.768C247.668 74.9867 248.735 76.6933 250.868 77.888C253.001 79.0827 255.647 80.1067 258.804 80.96C261.961 81.728 265.375 82.496 269.044 83.264C272.799 83.9467 276.255 84.9707 279.412 86.336C282.569 87.7013 285.215 89.536 287.348 91.84C289.481 94.144 290.548 97.2587 290.548 101.184C290.548 107.072 288.201 111.936 283.508 115.776C278.9 119.616 271.945 121.536 262.644 121.536C259.828 121.536 257.055 121.28 254.324 120.768C251.593 120.256 249.033 119.573 246.644 118.72C244.255 117.867 242.079 116.928 240.116 115.904C238.153 114.795 236.532 113.685 235.252 112.576L240.372 104.256C241.396 105.28 242.761 106.347 244.468 107.456C246.175 108.48 248.052 109.419 250.1 110.272C252.148 111.125 254.324 111.808 256.628 112.32C259.017 112.832 261.407 113.088 263.796 113.088C266.1 113.088 268.233 112.917 270.196 112.576C272.244 112.149 274.036 111.552 275.572 110.784C277.108 109.931 278.303 108.864 279.156 107.584C280.095 106.219 280.564 104.597 280.564 102.72ZM305.218 56H320.45V43.328L330.434 40.512V56H364.61V64.576H330.434V94.784C330.434 101.013 331.927 105.621 334.914 108.608C337.986 111.595 342.338 113.088 347.97 113.088C351.81 113.088 355.138 112.363 357.954 110.912C360.855 109.461 363.458 107.883 365.762 106.176L369.09 113.728C366.103 116.117 362.519 118.037 358.338 119.488C354.242 120.939 350.018 121.664 345.666 121.664C342.253 121.664 339.01 121.152 335.938 120.128C332.951 119.189 330.306 117.696 328.002 115.648C325.698 113.6 323.863 110.997 322.498 107.84C321.133 104.597 320.45 100.757 320.45 96.32V64.576H305.218V56ZM391.824 60.992C395.493 58.8587 399.632 57.3227 404.24 56.384C408.848 55.4453 413.371 54.976 417.808 54.976C422.16 54.976 425.701 55.6587 428.432 57.024C431.248 58.3893 433.424 60.1813 434.96 62.4C436.581 64.5333 437.648 67.008 438.16 69.824C438.757 72.5547 439.056 75.328 439.056 78.144C439.056 81.3867 438.971 84.8427 438.8 88.512C438.629 92.1813 438.501 95.8507 438.416 99.52C438.416 103.787 438.672 107.84 439.184 111.68H447.76V120H430.736L429.584 110.4H428.944C428.432 111.168 427.664 112.149 426.64 113.344C425.616 114.539 424.251 115.733 422.544 116.928C420.923 118.037 418.917 119.019 416.528 119.872C414.139 120.725 411.323 121.152 408.08 121.152C401.765 121.152 396.773 119.531 393.104 116.288C389.435 113.045 387.6 108.608 387.6 102.976C387.6 98.624 388.539 94.9973 390.416 92.096C392.379 89.1947 395.152 86.976 398.736 85.44C402.32 83.904 406.629 83.008 411.664 82.752C416.784 82.496 422.501 82.8373 428.816 83.776C429.243 79.8507 429.285 76.608 428.944 74.048C428.688 71.4027 428.005 69.312 426.896 67.776C425.872 66.24 424.379 65.1733 422.416 64.576C420.539 63.8933 418.192 63.552 415.376 63.552C411.536 63.552 407.867 64.1067 404.368 65.216C400.869 66.24 397.755 67.3067 395.024 68.416L391.824 60.992ZM410.64 112.576C413.029 112.576 415.248 112.192 417.296 111.424C419.344 110.656 421.136 109.675 422.672 108.48C424.208 107.285 425.488 106.005 426.512 104.64C427.536 103.189 428.304 101.824 428.816 100.544V91.584C424.379 90.816 420.283 90.432 416.528 90.432C412.773 90.432 409.531 90.8587 406.8 91.712C404.069 92.48 401.936 93.7173 400.4 95.424C398.864 97.1307 398.096 99.3493 398.096 102.08C398.096 104.896 399.035 107.371 400.912 109.504C402.875 111.552 406.117 112.576 410.64 112.576ZM469.982 30.4H491.23V98.496C491.23 103.701 492.083 107.371 493.79 109.504C495.582 111.637 498.185 112.704 501.598 112.704C503.987 112.704 506.249 112.277 508.382 111.424C510.601 110.571 513.033 109.12 515.678 107.072L520.286 114.112C518.921 115.307 517.427 116.373 515.806 117.312C514.185 118.251 512.521 119.061 510.814 119.744C509.107 120.341 507.401 120.811 505.694 121.152C503.987 121.493 502.409 121.664 500.958 121.664C497.801 121.664 494.985 121.237 492.51 120.384C490.035 119.616 487.945 118.336 486.238 116.544C484.617 114.752 483.379 112.405 482.526 109.504C481.673 106.517 481.246 102.848 481.246 98.496V38.976H469.982V30.4ZM546.732 30.4H567.98V98.496C567.98 103.701 568.833 107.371 570.54 109.504C572.332 111.637 574.935 112.704 578.348 112.704C580.737 112.704 582.999 112.277 585.132 111.424C587.351 110.571 589.783 109.12 592.428 107.072L597.036 114.112C595.671 115.307 594.177 116.373 592.556 117.312C590.935 118.251 589.271 119.061 587.564 119.744C585.857 120.341 584.151 120.811 582.444 121.152C580.737 121.493 579.159 121.664 577.708 121.664C574.551 121.664 571.735 121.237 569.26 120.384C566.785 119.616 564.695 118.336 562.988 116.544C561.367 114.752 560.129 112.405 559.276 109.504C558.423 106.517 557.996 102.848 557.996 98.496V38.976H546.732V30.4ZM622.074 60.992C625.743 58.8587 629.882 57.3227 634.49 56.384C639.098 55.4453 643.621 54.976 648.058 54.976C652.41 54.976 655.951 55.6587 658.682 57.024C661.498 58.3893 663.674 60.1813 665.21 62.4C666.831 64.5333 667.898 67.008 668.41 69.824C669.007 72.5547 669.306 75.328 669.306 78.144C669.306 81.3867 669.221 84.8427 669.05 88.512C668.879 92.1813 668.751 95.8507 668.666 99.52C668.666 103.787 668.922 107.84 669.434 111.68H678.01V120H660.986L659.834 110.4H659.194C658.682 111.168 657.914 112.149 656.89 113.344C655.866 114.539 654.501 115.733 652.794 116.928C651.173 118.037 649.167 119.019 646.778 119.872C644.389 120.725 641.573 121.152 638.33 121.152C632.015 121.152 627.023 119.531 623.354 116.288C619.685 113.045 617.85 108.608 617.85 102.976C617.85 98.624 618.789 94.9973 620.666 92.096C622.629 89.1947 625.402 86.976 628.986 85.44C632.57 83.904 636.879 83.008 641.914 82.752C647.034 82.496 652.751 82.8373 659.066 83.776C659.493 79.8507 659.535 76.608 659.194 74.048C658.938 71.4027 658.255 69.312 657.146 67.776C656.122 66.24 654.629 65.1733 652.666 64.576C650.789 63.8933 648.442 63.552 645.626 63.552C641.786 63.552 638.117 64.1067 634.618 65.216C631.119 66.24 628.005 67.3067 625.274 68.416L622.074 60.992ZM640.89 112.576C643.279 112.576 645.498 112.192 647.546 111.424C649.594 110.656 651.386 109.675 652.922 108.48C654.458 107.285 655.738 106.005 656.762 104.64C657.786 103.189 658.554 101.824 659.066 100.544V91.584C654.629 90.816 650.533 90.432 646.778 90.432C643.023 90.432 639.781 90.8587 637.05 91.712C634.319 92.48 632.186 93.7173 630.65 95.424C629.114 97.1307 628.346 99.3493 628.346 102.08C628.346 104.896 629.285 107.371 631.162 109.504C633.125 111.552 636.367 112.576 640.89 112.576ZM688.968 56H704.2V43.328L714.184 40.512V56H748.36V64.576H714.184V94.784C714.184 101.013 715.677 105.621 718.664 108.608C721.736 111.595 726.088 113.088 731.72 113.088C735.56 113.088 738.888 112.363 741.704 110.912C744.605 109.461 747.208 107.883 749.512 106.176L752.84 113.728C749.853 116.117 746.269 118.037 742.088 119.488C737.992 120.939 733.768 121.664 729.416 121.664C726.003 121.664 722.76 121.152 719.688 120.128C716.701 119.189 714.056 117.696 711.752 115.648C709.448 113.6 707.613 110.997 706.248 107.84C704.883 104.597 704.2 100.757 704.2 96.32V64.576H688.968V56ZM775.19 120V111.424H797.462V64.576H775.19V56H807.702V111.424H829.462V120H775.19ZM794.006 37.824C794.006 35.52 794.774 33.5573 796.31 31.936C797.846 30.2293 799.809 29.376 802.198 29.376C804.673 29.376 806.721 30.2293 808.342 31.936C810.049 33.5573 810.902 35.52 810.902 37.824C810.902 40.0427 810.049 41.92 808.342 43.456C806.721 44.992 804.673 45.76 802.198 45.76C799.809 45.76 797.846 44.992 796.31 43.456C794.774 41.92 794.006 40.0427 794.006 37.824ZM845.796 88C845.796 77.6747 848.484 69.5253 853.86 63.552C859.236 57.4933 866.916 54.464 876.9 54.464C882.276 54.464 886.884 55.36 890.724 57.152C894.649 58.8587 897.892 61.2053 900.452 64.192C903.012 67.1787 904.889 70.72 906.084 74.816C907.364 78.912 908.004 83.3067 908.004 88C908.004 93.12 907.321 97.7707 905.956 101.952C904.591 106.048 902.585 109.547 899.94 112.448C897.295 115.349 894.009 117.611 890.084 119.232C886.244 120.768 881.849 121.536 876.9 121.536C871.609 121.536 867.001 120.683 863.076 118.976C859.151 117.184 855.908 114.795 853.348 111.808C850.788 108.821 848.868 105.28 847.588 101.184C846.393 97.088 845.796 92.6933 845.796 88ZM856.42 88C856.42 90.9867 856.761 93.9733 857.444 96.96C858.212 99.9467 859.407 102.635 861.028 105.024C862.649 107.413 864.74 109.333 867.3 110.784C869.945 112.235 873.145 112.96 876.9 112.96C883.727 112.96 888.847 110.869 892.26 106.688C895.759 102.421 897.508 96.192 897.508 88C897.508 84.928 897.124 81.9413 896.356 79.04C895.673 76.0533 894.479 73.3653 892.772 70.976C891.151 68.5867 889.017 66.6667 886.372 65.216C883.812 63.7653 880.655 63.04 876.9 63.04C870.073 63.04 864.953 65.1307 861.54 69.312C858.127 73.4933 856.42 79.7227 856.42 88ZM927.154 78.4C927.154 77.632 927.111 76.6507 927.026 75.456C927.026 74.176 926.983 72.896 926.898 71.616C926.813 70.2507 926.685 68.928 926.514 67.648C926.429 66.368 926.301 65.2587 926.13 64.32H917.554V56H934.706L935.858 66.368H936.498C937.351 64.9173 938.461 63.5093 939.826 62.144C941.277 60.6933 942.941 59.4133 944.818 58.304C946.695 57.1093 948.786 56.1707 951.09 55.488C953.394 54.8053 955.826 54.464 958.386 54.464C962.311 54.464 965.767 54.8907 968.754 55.744C971.826 56.5973 974.343 58.1333 976.306 60.352C978.354 62.4853 979.89 65.4293 980.914 69.184C981.938 72.8533 982.45 77.5467 982.45 83.264V120H972.466V85.184C972.466 78.1013 971.314 72.768 969.01 69.184C966.706 65.6 962.525 63.808 956.466 63.808C954.247 63.808 952.071 64.2773 949.938 65.216C947.89 66.0693 946.013 67.2213 944.306 68.672C942.599 70.1227 941.106 71.8293 939.826 73.792C938.546 75.6693 937.607 77.6747 937.01 79.808V120H927.154V78.4Z" fill="black"/>
</svg>
