<svg width="384" height="150" viewBox="0 0 384 150" fill="none" xmlns="http://www.w3.org/2000/svg">
<rect x="1.45455" y="1.45455" width="381.091" height="146.946" rx="36.0092" fill="#FFDFC3" fill-opacity="0.34" stroke="black" stroke-width="2.90909"/>
<path d="M40.2484 106.182V100.158H55.8933V67.2495H40.2484V61.2253H63.0863V100.158H78.3715V106.182H40.2484ZM53.4656 48.4577C53.4656 46.8392 54.0051 45.4606 55.084 44.3217C56.163 43.1228 57.5417 42.5234 59.22 42.5234C60.9584 42.5234 62.397 43.1228 63.5359 44.3217C64.7347 45.4606 65.3341 46.8392 65.3341 48.4577C65.3341 50.0162 64.7347 51.3349 63.5359 52.4138C62.397 53.4928 60.9584 54.0323 59.22 54.0323C57.5417 54.0323 56.163 53.4928 55.084 52.4138C54.0051 51.3349 53.4656 50.0162 53.4656 48.4577ZM102.343 66.7999L97.4878 57.7187H97.1282L98.0273 66.7999V106.182H91.0141V43.2427H95.8694L121.225 82.4448L125.9 91.0764H126.35L125.361 82.4448V43.2427H132.374V106.182H127.519L102.343 66.7999ZM165.786 97.4602H166.776L180.892 61.2253H188.714L169.743 106.182H161.83L142.499 61.2253H150.771L165.786 97.4602ZM240.109 100.517C239.03 101.476 237.742 102.375 236.243 103.215C234.804 104.054 233.216 104.773 231.478 105.373C229.739 105.972 227.911 106.422 225.993 106.721C224.135 107.081 222.247 107.261 220.328 107.261C216.732 107.261 213.555 106.721 210.798 105.642C208.04 104.503 205.733 102.915 203.874 100.877C202.016 98.7789 200.608 96.2913 199.649 93.4141C198.689 90.5369 198.21 87.3001 198.21 83.7035C198.21 79.9272 198.719 76.5704 199.738 73.6333C200.817 70.6961 202.346 68.2385 204.324 66.2604C206.302 64.2823 208.7 62.7838 211.517 61.7648C214.334 60.6858 217.481 60.1464 220.958 60.1464C223.475 60.1464 225.963 60.476 228.421 61.1354C230.878 61.7948 233.036 63.0535 234.894 64.9117C236.813 66.71 238.281 69.2276 239.3 72.4644C240.319 75.6413 240.679 79.7773 240.379 84.8724H205.583C205.583 90.2672 207.021 94.3133 209.899 97.0106C212.836 99.6481 216.732 100.967 221.587 100.967C223.206 100.967 224.794 100.787 226.353 100.427C227.971 100.008 229.5 99.5282 230.938 98.9887C232.377 98.4493 233.636 97.8498 234.715 97.1905C235.853 96.5311 236.723 95.9317 237.322 95.3922L240.109 100.517ZM221.138 66.0806C219.16 66.0806 217.271 66.2904 215.473 66.71C213.735 67.1296 212.176 67.8489 210.798 68.8679C209.479 69.827 208.37 71.1157 207.471 72.7342C206.632 74.2927 206.092 76.2408 205.853 78.5785H233.815C233.516 74.6223 232.227 71.5653 229.949 69.4074C227.731 67.1895 224.794 66.0806 221.138 66.0806ZM252.392 106.182V100.158H264.531V67.2495H252.392V61.2253H269.206L270.645 67.0696H271.094C273.132 65.2114 275.41 63.623 277.928 62.3043C280.445 60.9855 283.442 60.3262 286.919 60.3262C288.957 60.3262 290.575 60.7158 291.774 61.495C293.033 62.2743 293.992 63.4132 294.651 64.9117C295.371 66.4103 295.85 68.2385 296.09 70.3964C296.33 72.4944 296.45 74.8921 296.45 77.5895L290.156 77.6794C290.156 73.8431 289.766 71.0258 288.987 69.2276C288.268 67.4293 286.919 66.5302 284.941 66.5302C283.083 66.5302 281.404 66.7999 279.906 67.3394C278.407 67.8789 277.088 68.5382 275.949 69.3175C274.871 70.0967 273.941 70.876 273.162 71.6552C272.383 72.4345 271.813 73.0938 271.454 73.6333V100.158H288.717V106.182H252.392ZM303.158 61.2253H313.858V52.3239L320.871 50.3458V61.2253H344.878V67.2495H320.871V88.4689C320.871 92.8447 321.92 96.0815 324.018 98.1795C326.176 100.277 329.233 101.326 333.189 101.326C335.886 101.326 338.224 100.817 340.202 99.7979C342.24 98.7789 344.068 97.67 345.687 96.4712L348.025 101.776C345.927 103.454 343.409 104.803 340.472 105.822C337.595 106.841 334.627 107.351 331.57 107.351C329.173 107.351 326.895 106.991 324.737 106.272C322.639 105.612 320.781 104.563 319.162 103.125C317.544 101.686 316.255 99.8579 315.296 97.64C314.337 95.3622 313.858 92.6649 313.858 89.5479V67.2495H303.158V61.2253Z" fill="black"/>
</svg>
