<svg width="384" height="150" viewBox="0 0 384 150" fill="none" xmlns="http://www.w3.org/2000/svg">
<rect x="1.45455" y="1.45455" width="381.091" height="146.946" rx="36.0092" fill="#FFF4EA" stroke="black" stroke-width="2.90909"/>
<path d="M40.2484 106.182V100.158H55.8933V67.2496H40.2484V61.2254H63.0863V100.158H78.3715V106.182H40.2484ZM53.4656 48.4578C53.4656 46.8394 54.0051 45.4607 55.084 44.3218C56.163 43.123 57.5417 42.5235 59.22 42.5235C60.9584 42.5235 62.397 43.123 63.5359 44.3218C64.7347 45.4607 65.3341 46.8394 65.3341 48.4578C65.3341 50.0163 64.7347 51.335 63.5359 52.414C62.397 53.4929 60.9584 54.0324 59.22 54.0324C57.5417 54.0324 56.163 53.4929 55.084 52.414C54.0051 51.335 53.4656 50.0163 53.4656 48.4578ZM93.0821 76.9602C93.0821 76.4207 93.0521 75.7314 92.9922 74.8922C92.9922 73.9931 92.9622 73.0939 92.9023 72.1948C92.8423 71.2357 92.7524 70.3066 92.6325 69.4075C92.5726 68.5084 92.4827 67.7291 92.3628 67.0698H86.3386V61.2254H98.3869L99.1962 68.5084H99.6457C100.245 67.4894 101.024 66.5003 101.983 65.5413C103.002 64.5222 104.171 63.6231 105.49 62.8439C106.809 62.0047 108.277 61.3453 109.896 60.8658C111.514 60.3862 113.223 60.1465 115.021 60.1465C117.778 60.1465 120.206 60.4462 122.304 61.0456C124.462 61.645 126.23 62.724 127.609 64.2825C129.047 65.781 130.126 67.849 130.845 70.4865C131.565 73.064 131.924 76.3608 131.924 80.3769V106.182H124.911V81.7256C124.911 76.7504 124.102 73.004 122.484 70.4865C120.865 67.9689 117.928 66.7101 113.672 66.7101C112.114 66.7101 110.585 67.0398 109.087 67.6992C107.648 68.2986 106.329 69.1078 105.13 70.1268C103.932 71.1458 102.883 72.3447 101.983 73.7233C101.084 75.042 100.425 76.4507 100.005 77.9492V106.182H93.0821V76.9602ZM165.786 97.4603H166.776L180.892 61.2254H188.714L169.743 106.182H161.83L142.499 61.2254H150.771L165.786 97.4603ZM240.109 100.517C239.03 101.476 237.742 102.376 236.243 103.215C234.804 104.054 233.216 104.773 231.478 105.373C229.739 105.972 227.911 106.422 225.993 106.721C224.135 107.081 222.247 107.261 220.328 107.261C216.732 107.261 213.555 106.721 210.798 105.642C208.04 104.504 205.733 102.915 203.874 100.877C202.016 98.7791 200.608 96.2915 199.649 93.4143C198.689 90.537 198.21 87.3002 198.21 83.7037C198.21 79.9273 198.719 76.5706 199.738 73.6334C200.817 70.6963 202.346 68.2386 204.324 66.2606C206.302 64.2825 208.7 62.7839 211.517 61.7649C214.334 60.686 217.481 60.1465 220.958 60.1465C223.475 60.1465 225.963 60.4762 228.421 61.1355C230.878 61.7949 233.036 63.0537 234.894 64.9119C236.813 66.7101 238.281 69.2277 239.3 72.4645C240.319 75.6415 240.679 79.7775 240.379 84.8725H205.583C205.583 90.2673 207.021 94.3134 209.899 97.0108C212.836 99.6482 216.732 100.967 221.587 100.967C223.206 100.967 224.794 100.787 226.353 100.427C227.971 100.008 229.5 99.5283 230.938 98.9889C232.377 98.4494 233.636 97.85 234.715 97.1906C235.853 96.5312 236.723 95.9318 237.322 95.3923L240.109 100.517ZM221.138 66.0807C219.16 66.0807 217.271 66.2905 215.473 66.7101C213.735 67.1297 212.176 67.849 210.798 68.868C209.479 69.8271 208.37 71.1159 207.471 72.7343C206.632 74.2928 206.092 76.2409 205.853 78.5786H233.815C233.516 74.6225 232.227 71.5654 229.949 69.4075C227.731 67.1897 224.794 66.0807 221.138 66.0807ZM252.392 106.182V100.158H264.531V67.2496H252.392V61.2254H269.206L270.645 67.0698H271.094C273.132 65.2116 275.41 63.6231 277.928 62.3044C280.445 60.9857 283.442 60.3263 286.919 60.3263C288.957 60.3263 290.575 60.7159 291.774 61.4952C293.033 62.2744 293.992 63.4133 294.651 64.9119C295.371 66.4104 295.85 68.2386 296.09 70.3965C296.33 72.4945 296.45 74.8922 296.45 77.5896L290.156 77.6795C290.156 73.8432 289.766 71.0259 288.987 69.2277C288.268 67.4294 286.919 66.5303 284.941 66.5303C283.083 66.5303 281.404 66.8 279.906 67.3395C278.407 67.879 277.088 68.5383 275.949 69.3176C274.871 70.0968 273.941 70.8761 273.162 71.6553C272.383 72.4346 271.813 73.0939 271.454 73.6334V100.158H288.717V106.182H252.392ZM303.158 61.2254H313.858V52.3241L320.871 50.346V61.2254H344.878V67.2496H320.871V88.469C320.871 92.8448 321.92 96.0817 324.018 98.1796C326.176 100.278 329.233 101.327 333.189 101.327C335.886 101.327 338.224 100.817 340.202 99.7981C342.24 98.7791 344.068 97.6701 345.687 96.4713L348.025 101.776C345.927 103.455 343.409 104.803 340.472 105.822C337.595 106.841 334.627 107.351 331.57 107.351C329.173 107.351 326.895 106.991 324.737 106.272C322.639 105.612 320.781 104.563 319.162 103.125C317.544 101.686 316.255 99.858 315.296 97.6402C314.337 95.3624 313.858 92.665 313.858 89.548V67.2496H303.158V61.2254Z" fill="black"/>
</svg>
