<svg width="613" height="197" viewBox="0 0 613 197" fill="none" xmlns="http://www.w3.org/2000/svg">
<rect width="613" height="197" rx="20" fill="white"/>
<path d="M127.458 57.9235C123.99 57.9235 121.024 56.7788 118.559 54.4894C116.186 52.1999 115 49.2695 115 45.698C115 42.1264 116.186 39.2418 118.559 37.0439C121.024 34.7545 123.99 33.6098 127.458 33.6098C130.926 33.6098 133.847 34.7545 136.22 37.0439C138.684 39.2418 139.916 42.1264 139.916 45.698C139.916 49.2695 138.684 52.1999 136.22 54.4894C133.847 56.7788 130.926 57.9235 127.458 57.9235ZM116.506 66.1655H138.41V132.376H116.506V66.1655Z" fill="black"/>
<path d="M236.67 62.1813H259.259L273.633 112.457L286.639 62.1813H308.68L286.776 132.375H260.354L236.67 62.1813Z" fill="black"/>
<path d="M374.205 125.644C371.832 127.567 368.41 129.307 363.938 130.864C359.557 132.421 354.491 133.199 348.741 133.199C343.265 133.199 338.246 132.375 333.682 130.727C329.119 129.078 325.149 126.652 321.772 123.446C318.486 120.241 315.93 116.349 314.105 111.77C312.28 107.1 311.367 101.788 311.367 95.8359C311.367 90.3413 312.143 85.4419 313.694 81.1377C315.337 76.8336 317.619 73.2163 320.539 70.2858C323.551 67.2638 327.156 65.0202 331.355 63.5549C335.553 61.9981 340.253 61.2197 345.456 61.2197C350.932 61.2197 355.632 62.0439 359.557 63.6923C363.572 65.2491 366.812 67.4469 369.277 70.2858C371.832 73.1247 373.703 76.4215 374.89 80.1762C376.167 83.8393 376.806 87.8229 376.806 92.127C376.806 94.2333 376.669 96.3396 376.396 98.4459C376.213 100.552 375.894 102.658 375.437 104.765H332.861C333.134 107.054 333.773 108.977 334.777 110.534C335.781 112.091 337.059 113.327 338.611 114.243C340.253 115.159 342.079 115.8 344.087 116.166C346.186 116.532 348.331 116.716 350.521 116.716C354.263 116.716 357.686 116.303 360.789 115.479C363.892 114.655 366.402 113.465 368.318 111.908L374.205 125.644ZM357.64 90.8907C357.64 87.2276 356.59 84.1598 354.491 81.6872C352.483 79.1231 349.426 77.841 345.319 77.841C341.394 77.841 338.337 79.0315 336.146 81.4125C333.956 83.7935 332.861 86.9529 332.861 90.8907H357.64Z" fill="black"/>
<path d="M389.075 74.1321C392.27 70.469 396.194 67.4012 400.849 64.9286C405.503 62.456 410.934 61.2197 417.14 61.2197C424.624 61.2197 431.195 63.1428 436.854 66.9891L431.104 82.7861C429.735 81.8704 428.092 81.1835 426.175 80.7256C424.35 80.2678 422.661 80.0388 421.11 80.0388C419.193 80.0388 417.414 80.3136 415.771 80.863C414.219 81.3209 413.078 81.8704 412.348 82.5114V132.375H389.075V74.1321Z" fill="black"/>
<path d="M455.054 80.7256H443.691V64.3791H455.602V45.0105H477.506V64.3791H496.125V80.863H477.643V106.413C477.643 109.893 478.465 112.274 480.107 113.556C481.842 114.838 483.895 115.479 486.268 115.479C487.728 115.479 489.326 115.342 491.06 115.067C492.885 114.701 494.3 114.197 495.304 113.556L499 129.765C496.718 131.047 494.071 131.963 491.06 132.513C488.139 133.062 485.218 133.337 482.298 133.337C478.282 133.337 474.586 132.879 471.209 131.963C467.923 130.956 465.048 129.399 462.584 127.293C460.211 125.186 458.34 122.485 456.971 119.188C455.693 115.891 455.054 111.862 455.054 107.1V80.7256Z" fill="black"/>
<path d="M158.852 61.5122H180.13L203.885 105.168V44.3415H223.025V132.341H201.183L177.991 90.3562V151.659H158.852V61.5122Z" fill="black"/>
<path fill-rule="evenodd" clip-rule="evenodd" d="M193.077 44.3415L213.399 10L233.72 44.3415H193.077Z" fill="black"/>
<path fill-rule="evenodd" clip-rule="evenodd" d="M188.799 151.659L168.478 186L148.156 151.659H188.799Z" fill="black"/>
</svg>
