<svg width="683" height="150" viewBox="0 0 683 150" fill="none" xmlns="http://www.w3.org/2000/svg">
<rect x="1.45455" y="1.45455" width="680.091" height="147.091" rx="36.0092" fill="#FFF4EA" stroke="black" stroke-width="2.90909"/>
<path d="M131.88 30.4H142.12V90.176C142.12 95.552 141.395 100.203 139.944 104.128C138.579 108.053 136.616 111.296 134.056 113.856C131.496 116.331 128.381 118.165 124.712 119.36C121.043 120.555 116.989 121.152 112.552 121.152C101.971 121.152 93.992 118.763 88.616 113.984C83.3253 109.205 80.68 101.952 80.68 92.224V30.4H91.304V87.232C91.304 91.7547 91.7307 95.5947 92.584 98.752C93.5227 101.824 94.8453 104.341 96.552 106.304C98.344 108.181 100.563 109.547 103.208 110.4C105.939 111.253 109.096 111.68 112.68 111.68C119.592 111.68 124.499 109.803 127.4 106.048C130.387 102.208 131.88 95.936 131.88 87.232V30.4ZM162.038 78.4C162.038 77.632 161.995 76.6507 161.91 75.456C161.91 74.176 161.867 72.896 161.782 71.616C161.697 70.2507 161.569 68.928 161.398 67.648C161.313 66.368 161.185 65.2587 161.014 64.32H152.438V56H169.462L170.742 64.96H171.382C173.686 61.9733 176.587 59.4987 180.086 57.536C183.67 55.488 188.022 54.464 193.142 54.464C202.273 54.464 209.142 56.9813 213.75 62.016C218.358 67.0507 220.662 75.2853 220.662 86.72C220.662 92.096 219.851 96.96 218.23 101.312C216.694 105.579 214.475 109.205 211.574 112.192C208.673 115.179 205.174 117.483 201.078 119.104C196.982 120.725 192.459 121.536 187.51 121.536C185.718 121.536 184.097 121.451 182.646 121.28C181.281 121.195 180.001 121.024 178.806 120.768C177.697 120.597 176.587 120.341 175.478 120C174.369 119.659 173.174 119.232 171.894 118.72V145.6H162.038V78.4ZM191.478 63.808C188.918 63.808 186.486 64.2773 184.182 65.216C181.963 66.1547 179.958 67.392 178.166 68.928C176.459 70.464 175.051 72.1707 173.942 74.048C172.833 75.9253 172.15 77.8027 171.894 79.68V108.864C173.771 110.144 175.862 111.168 178.166 111.936C180.555 112.619 183.67 112.96 187.51 112.96C194.337 112.96 199.798 110.741 203.894 106.304C207.99 101.781 210.038 95.2107 210.038 86.592C210.038 79.3387 208.587 73.7493 205.686 69.824C202.87 65.8133 198.134 63.808 191.478 63.808ZM271.172 30.4H291.908V98.112C291.908 98.88 291.951 99.8613 292.036 101.056C292.121 102.165 292.207 103.36 292.292 104.64C292.463 105.92 292.633 107.2 292.804 108.48C292.975 109.675 293.145 110.741 293.316 111.68H301.892V120H284.868L283.588 110.144H283.076C281.199 113.387 278.383 116.117 274.628 118.336C270.959 120.469 266.692 121.536 261.828 121.536C252.185 121.536 245.06 118.848 240.452 113.472C235.929 108.011 233.668 99.5627 233.668 88.128C233.668 82.752 234.436 78.016 235.972 73.92C237.508 69.7387 239.684 66.2827 242.5 63.552C245.401 60.736 248.857 58.6027 252.868 57.152C256.879 55.7013 261.359 54.976 266.308 54.976C268.1 54.976 269.679 55.0187 271.044 55.104C272.495 55.1893 273.817 55.3173 275.012 55.488C276.207 55.6587 277.316 55.9147 278.34 56.256C279.449 56.512 280.644 56.8107 281.924 57.152V38.976H271.172V30.4ZM263.492 112.96C268.697 112.96 272.793 111.637 275.78 108.992C278.767 106.261 280.815 102.208 281.924 96.832V67.136C280.047 65.856 277.913 64.9173 275.524 64.32C273.22 63.7227 270.148 63.424 266.308 63.424C259.481 63.424 254.105 65.4293 250.18 69.44C246.255 73.3653 244.292 79.5947 244.292 88.128C244.292 91.6267 244.591 94.912 245.188 97.984C245.871 100.971 246.937 103.573 248.388 105.792C249.924 108.011 251.929 109.76 254.404 111.04C256.879 112.32 259.908 112.96 263.492 112.96ZM317.074 60.992C320.743 58.8587 324.882 57.3227 329.49 56.384C334.098 55.4453 338.621 54.976 343.058 54.976C347.41 54.976 350.951 55.6587 353.682 57.024C356.498 58.3893 358.674 60.1813 360.21 62.4C361.831 64.5333 362.898 67.008 363.41 69.824C364.007 72.5547 364.306 75.328 364.306 78.144C364.306 81.3867 364.221 84.8427 364.05 88.512C363.879 92.1813 363.751 95.8507 363.666 99.52C363.666 103.787 363.922 107.84 364.434 111.68H373.01V120H355.986L354.834 110.4H354.194C353.682 111.168 352.914 112.149 351.89 113.344C350.866 114.539 349.501 115.733 347.794 116.928C346.173 118.037 344.167 119.019 341.778 119.872C339.389 120.725 336.573 121.152 333.33 121.152C327.015 121.152 322.023 119.531 318.354 116.288C314.685 113.045 312.85 108.608 312.85 102.976C312.85 98.624 313.789 94.9973 315.666 92.096C317.629 89.1947 320.402 86.976 323.986 85.44C327.57 83.904 331.879 83.008 336.914 82.752C342.034 82.496 347.751 82.8373 354.066 83.776C354.493 79.8507 354.535 76.608 354.194 74.048C353.938 71.4027 353.255 69.312 352.146 67.776C351.122 66.24 349.629 65.1733 347.666 64.576C345.789 63.8933 343.442 63.552 340.626 63.552C336.786 63.552 333.117 64.1067 329.618 65.216C326.119 66.24 323.005 67.3067 320.274 68.416L317.074 60.992ZM335.89 112.576C338.279 112.576 340.498 112.192 342.546 111.424C344.594 110.656 346.386 109.675 347.922 108.48C349.458 107.285 350.738 106.005 351.762 104.64C352.786 103.189 353.554 101.824 354.066 100.544V91.584C349.629 90.816 345.533 90.432 341.778 90.432C338.023 90.432 334.781 90.8587 332.05 91.712C329.319 92.48 327.186 93.7173 325.65 95.424C324.114 97.1307 323.346 99.3493 323.346 102.08C323.346 104.896 324.285 107.371 326.162 109.504C328.125 111.552 331.367 112.576 335.89 112.576ZM383.968 56H399.2V43.328L409.184 40.512V56H443.36V64.576H409.184V94.784C409.184 101.013 410.677 105.621 413.664 108.608C416.736 111.595 421.088 113.088 426.72 113.088C430.56 113.088 433.888 112.363 436.704 110.912C439.605 109.461 442.208 107.883 444.512 106.176L447.84 113.728C444.853 116.117 441.269 118.037 437.088 119.488C432.992 120.939 428.768 121.664 424.416 121.664C421.003 121.664 417.76 121.152 414.688 120.128C411.701 119.189 409.056 117.696 406.752 115.648C404.448 113.6 402.613 110.997 401.248 107.84C399.883 104.597 399.2 100.757 399.2 96.32V64.576H383.968V56ZM524.462 111.936C522.926 113.301 521.091 114.581 518.958 115.776C516.91 116.971 514.649 117.995 512.174 118.848C509.699 119.701 507.097 120.341 504.366 120.768C501.721 121.28 499.033 121.536 496.302 121.536C491.182 121.536 486.659 120.768 482.734 119.232C478.809 117.611 475.523 115.349 472.878 112.448C470.233 109.461 468.227 105.92 466.862 101.824C465.497 97.728 464.814 93.12 464.814 88C464.814 82.624 465.539 77.8453 466.99 73.664C468.526 69.4827 470.702 65.984 473.518 63.168C476.334 60.352 479.747 58.2187 483.758 56.768C487.769 55.232 492.249 54.464 497.198 54.464C500.782 54.464 504.323 54.9333 507.822 55.872C511.321 56.8107 514.393 58.6027 517.038 61.248C519.769 63.808 521.859 67.392 523.31 72C524.761 76.5227 525.273 82.4107 524.846 89.664H475.31C475.31 97.344 477.358 103.104 481.454 106.944C485.635 110.699 491.182 112.576 498.094 112.576C500.398 112.576 502.659 112.32 504.878 111.808C507.182 111.211 509.358 110.528 511.406 109.76C513.454 108.992 515.246 108.139 516.782 107.2C518.403 106.261 519.641 105.408 520.494 104.64L524.462 111.936ZM497.454 62.912C494.638 62.912 491.95 63.2107 489.39 63.808C486.915 64.4053 484.697 65.4293 482.734 66.88C480.857 68.2453 479.278 70.08 477.998 72.384C476.803 74.6027 476.035 77.376 475.694 80.704H515.502C515.075 75.072 513.241 70.72 509.998 67.648C506.841 64.4907 502.659 62.912 497.454 62.912ZM589.564 102.72C589.564 99.9893 588.497 97.8987 586.364 96.448C584.231 94.912 581.585 93.7173 578.428 92.864C575.271 91.9253 571.815 91.072 568.06 90.304C564.391 89.536 560.977 88.512 557.82 87.232C554.663 85.952 552.017 84.2453 549.884 82.112C547.751 79.8933 546.684 76.8213 546.684 72.896C546.684 69.6533 547.367 66.88 548.732 64.576C550.183 62.272 552.06 60.3947 554.364 58.944C556.668 57.408 559.356 56.2987 562.428 55.616C565.5 54.848 568.7 54.464 572.028 54.464C578.001 54.464 583.121 55.232 587.388 56.768C591.74 58.2187 595.196 59.7547 597.756 61.376L593.66 69.44C590.844 67.904 587.772 66.4533 584.444 65.088C581.201 63.6373 577.105 62.912 572.156 62.912C570.279 62.912 568.401 63.1253 566.524 63.552C564.732 63.8933 563.068 64.448 561.532 65.216C560.081 65.984 558.887 67.008 557.948 68.288C557.095 69.4827 556.668 70.976 556.668 72.768C556.668 74.9867 557.735 76.6933 559.868 77.888C562.001 79.0827 564.647 80.1067 567.804 80.96C570.961 81.728 574.375 82.496 578.044 83.264C581.799 83.9467 585.255 84.9707 588.412 86.336C591.569 87.7013 594.215 89.536 596.348 91.84C598.481 94.144 599.548 97.2587 599.548 101.184C599.548 107.072 597.201 111.936 592.508 115.776C587.9 119.616 580.945 121.536 571.644 121.536C568.828 121.536 566.055 121.28 563.324 120.768C560.593 120.256 558.033 119.573 555.644 118.72C553.255 117.867 551.079 116.928 549.116 115.904C547.153 114.795 545.532 113.685 544.252 112.576L549.372 104.256C550.396 105.28 551.761 106.347 553.468 107.456C555.175 108.48 557.052 109.419 559.1 110.272C561.148 111.125 563.324 111.808 565.628 112.32C568.017 112.832 570.407 113.088 572.796 113.088C575.1 113.088 577.233 112.917 579.196 112.576C581.244 112.149 583.036 111.552 584.572 110.784C586.108 109.931 587.303 108.864 588.156 107.584C589.095 106.219 589.564 104.597 589.564 102.72Z" fill="black"/>
</svg>
